<?xml version="1.0" encoding="utf-8"?>
<!-- Uploaded to: SVG Repo, www.svgrepo.com, Generator: SVG Repo Mixer Tools -->
<svg width="800px" height="800px" viewBox="0 -27.48 203.93 203.93" xmlns="http://www.w3.org/2000/svg">

<defs>

<style>.cls-1{fill:#ffffff;}</style>

</defs>

<g id="Layer_2" data-name="Layer 2">

<g id="Layer_1-2" data-name="Layer 1">

<path d="M54.5,148.92c-11.73.52-26.82-2.46-41.59-7.56-2.68-.93-5.57-1.26-8.29-2.12-3.37-1.06-4.6-2.76-4.62-6.3-.09-17,1.69-33.84,8.67-49.55A103.68,103.68,0,0,1,25.46,57.54C32.25,49.75,39.34,42.33,48,36.42c5.9-4.05,11.41-8.66,17.18-12.9a61.49,61.49,0,0,1,8.63-5.64A187.67,187.67,0,0,1,117.33,2.36c14.12-3.14,28.45-2.81,42.75-1,6.53.84,13.09,1.49,19.56,2.62a43.63,43.63,0,0,1,18.71,8.2c4.7,3.51,6.42,7.88,5.21,13.5-1,4.48-1.65,9-3,13.41-2.31,7.38-5,14.63-7.63,21.89a45.62,45.62,0,0,1-2.59,5.42c-2.37,4.55-5,9-7.13,13.64a84.21,84.21,0,0,1-16.31,24,133.53,133.53,0,0,1-44.66,29.61c-9.55,3.94-19.16,7.52-29,10.59C81.84,147.81,70.25,148.92,54.5,148.92Zm38.06-96.7a5.44,5.44,0,0,0-.37-2.2c-.3-.44-1.21-.45-1.85-.65.12.65,0,1.5.41,1.91s1.3.53,2,.78c2.48,9.77,2.48,9.77-6.13,15.88-.23.16-.44.37-.68.52-4.66,3.09-8.27,2.6-12.09-1.67C72.41,65.2,71,63.56,69.64,62l-.85.46c1.15,4.23,2.31,8.46,3.58,13.09-3,2.88-5.82,5.75-8.85,8.32-4,3.43-6.54,3.24-10.4-.39-1-.9-1.89-1.84-2.86-2.79a30.18,30.18,0,0,0-2.45,1.92,143.31,143.31,0,0,0-22.1,29.33c-3,5.2-6.07,10.36-9,15.61-.61,1.11-.59,2.55-.89,4a120.16,120.16,0,0,0,22.81,6.07c14.51,2.46,29.19,3.55,43.51-.25,20-5.31,39.18-12.74,56.92-23.57a81.81,81.81,0,0,0,32.31-35.78,85,85,0,0,1,5.18-9.87,88.34,88.34,0,0,0,8.73-18.6,151.47,151.47,0,0,0,6.86-26.17c-9.63-.4-18.53,2-27.54,3a118.32,118.32,0,0,0-27.58,6.22,8.68,8.68,0,0,0-.08,2.65c1.14,3.31-.24,5.57-2.95,7.22a26.61,26.61,0,0,1-5.33,2.68c-4.13,1.37-7.07.18-9.48-3.6-.6-1-.92-2.1-1.5-3.08-1.42-2.36-2.44-2.2-5,.88q2.72,4.19,5.57,8.54c-3,4.45-7.65,6.21-12,8.25-6.28,2.93-7,2.68-11.69-2.45A10.32,10.32,0,0,0,92.56,52.22ZM132.83,21.9c2.69-.29,5.3-.24,7.74-.87a198.27,198.27,0,0,1,31.25-5.48,10.85,10.85,0,0,0,6.16-2.3A152.41,152.41,0,0,0,144.21,9.2a116.41,116.41,0,0,0-27.28,2.37C106.38,14,96.14,17.9,86,21.78A77.72,77.72,0,0,0,71,30c-7.12,4.79-13.85,10.16-20.82,15.18C36.68,54.92,26.62,67.63,19,82.26a79.71,79.71,0,0,0-9,28.45,37.74,37.74,0,0,0,.14,5.43c.88,0,1.32.11,1.4,0,2.74-4.36,5.28-8.85,8.19-13.1,6.6-9.65,12.49-19.89,21.83-27.39a24.86,24.86,0,0,0,2.9-3.47c-2.44-2.09-4.65-3.85-6.7-5.77-2.25-2.11-2.16-4.58.24-6.64a37.8,37.8,0,0,1,5.51-4.09c6.17-3.56,6.75-7.26,15.75,0a4.91,4.91,0,0,0,.71.48c2.16,1.21,3.77.8,4.88-1.88-1.53-1.54-3.16-3.11-4.7-4.77-2.62-2.82-2.48-5,.47-7.09,1.86-1.33,3.85-2.48,5.73-3.79,3.85-2.69,7.86-4.7,12.65-2.86,2-7.4,3-8.71,9.4-11.43a36,36,0,0,1,6.55-1.92c4.13-.87,7.29.57,9.3,4.35.92,1.72,1.85,3.43,3,5.48,1.33-.62,2.31-1,3.26-1.56.13-.07,0-.53.1-1.37a22.82,22.82,0,0,1-2.68-2.6c-2.65-3.44-2-6.67,1.61-8.46,3.08-1.5,6.23-2.9,9.44-4.1,5.21-1.94,9.21-.31,12.08,4.69C131.53,19.77,132.12,20.71,132.83,21.9ZM106.69,46,95,30.55l-4.29,2.73c3.48,4.72,6.58,9,9.81,13.25C102.09,48.52,104,48.14,106.69,46ZM84.61,57.86c-3.84-4.66-7-8.63-10.4-12.49A2.58,2.58,0,0,0,71.93,45a1.79,1.79,0,0,0-.88,2.79c2.78,4,5.69,7.85,8.62,11.71.29.39,1,.46,1.78.79ZM63.26,71.68A34.09,34.09,0,0,0,61,69.13c-2.3-2.1-4.61-4.2-7-6.19-1.17-1-2.74-1.35-3.7.08a3.16,3.16,0,0,0,.2,2.95c2.62,3.29,5.46,6.42,8.35,9.76a23.83,23.83,0,0,0,2.94-1.89A10.48,10.48,0,0,0,63.26,71.68ZM125.56,35a20.37,20.37,0,0,0-3.15-11,2.21,2.21,0,0,0-2.16-.22,2.21,2.21,0,0,0-.59,2.1C121.52,29,123.57,32,125.56,35ZM85.05,41.12c-.32-.41-.56-1-1-1.18s-.83.16-1.25.26c.24.44.4,1.11.76,1.25S84.55,41.26,85.05,41.12Z"/>

<path class="cls-1" d="M92.56,52.22a10.32,10.32,0,0,1,2,1.37C99.33,58.72,100,59,106.28,56c4.36-2,9-3.8,12-8.25q-2.85-4.36-5.57-8.54c2.56-3.08,3.58-3.24,5-.88.58,1,.9,2.12,1.5,3.08,2.41,3.78,5.35,5,9.48,3.6A26.61,26.61,0,0,0,134,42.37c2.71-1.65,4.09-3.91,2.95-7.22a8.68,8.68,0,0,1,.08-2.65,118.32,118.32,0,0,1,27.58-6.22c9-1,17.91-3.38,27.54-3a151.47,151.47,0,0,1-6.86,26.17,88.34,88.34,0,0,1-8.73,18.6,85,85,0,0,0-5.18,9.87,81.81,81.81,0,0,1-32.31,35.78c-17.74,10.83-37,18.26-56.92,23.57-14.32,3.8-29,2.71-43.51.25a120.16,120.16,0,0,1-22.81-6.07c.3-1.42.28-2.86.89-4,2.89-5.25,6-10.41,9-15.61a143.31,143.31,0,0,1,22.1-29.33,30.18,30.18,0,0,1,2.45-1.92c1,1,1.89,1.89,2.86,2.79,3.86,3.63,6.38,3.82,10.4.39,3-2.57,5.81-5.44,8.85-8.32-1.27-4.63-2.43-8.86-3.58-13.09l.85-.46c1.4,1.61,2.77,3.25,4.19,4.84,3.82,4.27,7.43,4.76,12.09,1.67.24-.15.45-.36.68-.52,8.61-6.11,8.61-6.11,6.13-15.88Z"/>

<path class="cls-1" d="M132.83,21.9c-.71-1.19-1.3-2.13-1.85-3.08-2.87-5-6.87-6.63-12.08-4.69-3.21,1.2-6.36,2.6-9.44,4.1-3.66,1.79-4.26,5-1.61,8.46a22.82,22.82,0,0,0,2.68,2.6c0,.84,0,1.3-.1,1.37-1,.51-1.93.94-3.26,1.56-1.11-2-2-3.76-3-5.48-2-3.78-5.17-5.22-9.3-4.35a36,36,0,0,0-6.55,1.92C82,27,81,28.34,79,35.74c-4.79-1.84-8.8.17-12.65,2.86-1.88,1.31-3.87,2.46-5.73,3.79-2.95,2.12-3.09,4.27-.47,7.09,1.54,1.66,3.17,3.23,4.7,4.77-1.11,2.68-2.72,3.09-4.88,1.88a4.91,4.91,0,0,1-.71-.48c-9-7.25-9.58-3.55-15.75,0A37.8,37.8,0,0,0,38,59.75c-2.4,2.06-2.49,4.53-.24,6.64,2.05,1.92,4.26,3.68,6.7,5.77a24.86,24.86,0,0,1-2.9,3.47C32.18,83.13,26.29,93.37,19.69,103c-2.91,4.25-5.45,8.74-8.19,13.1-.08.13-.52,0-1.4,0a37.74,37.74,0,0,1-.14-5.43,79.71,79.71,0,0,1,9-28.45c7.66-14.63,17.72-27.34,31.25-37.09,7-5,13.7-10.39,20.82-15.18a77.72,77.72,0,0,1,15-8.21C96.14,17.9,106.38,14,116.93,11.57A116.41,116.41,0,0,1,144.21,9.2,152.41,152.41,0,0,1,178,13.25a10.85,10.85,0,0,1-6.16,2.3A198.27,198.27,0,0,0,140.57,21C138.13,21.66,135.52,21.61,132.83,21.9Z"/>

<path class="cls-1" d="M106.69,46c-2.73,2.15-4.6,2.53-6.13.54-3.23-4.21-6.33-8.53-9.81-13.25L95,30.55Z"/>

<path class="cls-1" d="M84.61,57.86l-3.16,2.47c-.79-.33-1.49-.4-1.78-.79-2.93-3.86-5.84-7.74-8.62-11.71A1.79,1.79,0,0,1,71.93,45a2.58,2.58,0,0,1,2.28.33C77.56,49.23,80.77,53.2,84.61,57.86Z"/>

<path class="cls-1" d="M63.26,71.68a10.48,10.48,0,0,1-1.51,2.16,23.83,23.83,0,0,1-2.94,1.89c-2.89-3.34-5.73-6.47-8.35-9.76a3.16,3.16,0,0,1-.2-2.95c1-1.43,2.53-1.06,3.7-.08,2.39,2,4.7,4.09,7,6.19A34.09,34.09,0,0,1,63.26,71.68Z"/>

<path class="cls-1" d="M125.56,35c-2-3-4-6-5.9-9.08a2.21,2.21,0,0,1,.59-2.1,2.21,2.21,0,0,1,2.16.22A20.37,20.37,0,0,1,125.56,35Z"/>

<path class="cls-1" d="M92.73,52.06c-.68-.25-1.54-.32-2-.78s-.29-1.26-.41-1.91c.64.2,1.55.21,1.85.65a5.44,5.44,0,0,1,.37,2.2Z"/>

<path class="cls-1" d="M85.05,41.13c-.5.13-1.08.47-1.47.32s-.52-.81-.76-1.25c.42-.1,1-.41,1.25-.26S84.73,40.71,85.05,41.13Z"/>

</g>

</g>

</svg>