<?xml version="1.0" encoding="iso-8859-1"?>
<!-- Uploaded to: SVG Repo, www.svgrepo.com, Generator: SVG Repo Mixer Tools -->
<!DOCTYPE svg PUBLIC "-//W3C//DTD SVG 1.1//EN" "http://www.w3.org/Graphics/SVG/1.1/DTD/svg11.dtd">
<svg fill="#000000" height="800px" width="800px" version="1.1" id="Capa_1" xmlns="http://www.w3.org/2000/svg" xmlns:xlink="http://www.w3.org/1999/xlink" 
	 viewBox="0 0 168.042 168.042" xml:space="preserve">
<path d="M143.278,159.642h-24.51c-1.381,0-2.5-1.119-2.5-2.5v-9.702h-6.385c-1.381,0-2.5-1.119-2.5-2.5v-28.497H97.073
	c-1.434,2.44-4.057,3.983-6.997,3.983H77.914c-2.94,0-5.563-1.542-6.997-3.983H60.658v28.497c0,1.381-1.119,2.5-2.5,2.5h-6.436
	v9.702c0,1.381-1.119,2.5-2.5,2.5h-24.51c-1.381,0-2.5-1.119-2.5-2.5v-9.702h-6.334c-1.329,0-2.426-1.04-2.497-2.367L7.38,32.191
	H2.5c-1.381,0-2.5-1.119-2.5-2.5V10.9c0-1.381,1.119-2.5,2.5-2.5h62.909c1.381,0,2.5,1.119,2.5,2.5v18.791
	c0,1.381-1.119,2.5-2.5,2.5h-4.751v22.574h10.259c1.434-2.44,4.057-3.983,6.997-3.983h12.162c2.94,0,5.563,1.542,6.997,3.983h10.311
	V32.191h-4.751c-1.381,0-2.5-1.119-2.5-2.5V10.9c0-1.381,1.119-2.5,2.5-2.5h62.909c1.381,0,2.5,1.119,2.5,2.5v18.791
	c0,1.381-1.119,2.5-2.5,2.5h-4.88l-6.001,112.882c-0.071,1.327-1.167,2.367-2.497,2.367h-6.385v9.702
	C145.778,158.523,144.659,159.642,143.278,159.642z M121.269,154.642h19.51v-7.202h-19.51V154.642z M27.212,154.642h19.51v-7.202
	h-19.51V154.642z M143.278,142.44h6.514l5.862-110.25h-43.271v110.25H143.278z M49.222,142.44h6.436V32.191H12.387l5.862,110.25
	H49.222z M75.428,114.192c0.582,0.758,1.499,1.234,2.486,1.234h12.162c0.987,0,1.904-0.477,2.486-1.234
	c-0.044-0.441,0.029-0.893,0.223-1.307c0.276-0.591,0.416-1.214,0.416-1.852V60.175c0-0.638-0.14-1.261-0.417-1.852
	c-0.193-0.414-0.267-0.866-0.223-1.307c-0.582-0.758-1.499-1.234-2.486-1.234H77.914c-0.987,0-1.904,0.477-2.486,1.234
	c0.044,0.441-0.029,0.893-0.223,1.307c-0.276,0.591-0.417,1.214-0.417,1.852v50.858c0,0.638,0.14,1.261,0.416,1.852
	C75.399,113.299,75.472,113.751,75.428,114.192z M98.201,111.443h9.183V59.764h-9.183V111.443z M60.658,111.443h9.131V59.764h-9.131
	V111.443z M158.291,27.191h4.751V13.4h-57.909v13.791H158.291z M58.158,27.191h4.751V13.4H5v13.791H58.158z"/>
</svg>