<?xml version="1.0" encoding="iso-8859-1"?>
<!-- Uploaded to: SVG Repo, www.svgrepo.com, Generator: SVG Repo Mixer Tools -->
<!DOCTYPE svg PUBLIC "-//W3C//DTD SVG 1.1//EN" "http://www.w3.org/Graphics/SVG/1.1/DTD/svg11.dtd">
<svg fill="#000000" version="1.1" id="Capa_1" xmlns="http://www.w3.org/2000/svg" xmlns:xlink="http://www.w3.org/1999/xlink" 
	 width="800px" height="800px" viewBox="0 0 165.826 165.826"
	 xml:space="preserve">
<g>
	<path d="M135.488,161.161c0.286,2.266-1.304,4.336-3.568,4.628c-0.177,0.024-0.354,0.037-0.53,0.037
		c-2.052,0-3.824-1.523-4.092-3.587l-5.863-45.541l-39.154-15.126l-2.469,42.302c-0.101,1.687-1.202,3.13-2.798,3.685
		l-41.266,13.926c-0.436,0.127-0.886,0.201-1.315,0.201c-1.72,0-3.331-1.084-3.909-2.783c-0.73-2.174,0.429-4.524,2.594-5.236
		l38.62-13.05l5.511-94.178c0.106-1.82,1.392-3.355,3.164-3.766c1.781-0.448,3.617,0.375,4.527,1.946l15.299,26.433l19.979-7.103
		c2.126-0.804,4.507,0.368,5.268,2.493c0.768,2.152-0.354,4.521-2.503,5.271l-23.212,8.254c-1.888,0.648-3.958-0.119-4.95-1.815
		L84.689,60.642l-1.891,32.267l43.909,16.971c1.407,0.548,2.411,1.814,2.606,3.318L135.488,161.161z M81.353,37.661
		c10.394,0,18.83-8.437,18.83-18.825C100.183,8.437,91.746,0,81.353,0C70.958,0,62.521,8.437,62.521,18.836
		C62.527,29.225,70.958,37.661,81.353,37.661z"/>
</g>
</svg>