<?xml version="1.0" encoding="iso-8859-1"?>
<!-- Uploaded to: SVG Repo, www.svgrepo.com, Generator: SVG Repo Mixer Tools -->
<!DOCTYPE svg PUBLIC "-//W3C//DTD SVG 1.1//EN" "http://www.w3.org/Graphics/SVG/1.1/DTD/svg11.dtd">
<svg fill="#000000" version="1.1" id="Capa_1" xmlns="http://www.w3.org/2000/svg" xmlns:xlink="http://www.w3.org/1999/xlink" 
	 width="800px" height="800px" viewBox="0 0 173.291 173.291"
	 xml:space="preserve">
<g>
	<g>
		<path d="M99.759,108.821L3.803,143.188c-2.987,1.078-4.534,4.348-3.465,7.35c0.84,2.339,3.042,3.782,5.392,3.782
			c0.642,0,1.291-0.122,1.933-0.341l95.956-34.367c2.978-1.072,4.53-4.348,3.459-7.344C106,109.31,102.712,107.774,99.759,108.821z"
			/>
		<path d="M172.878,154.332L130.644,48.359c-1.176-2.935-4.513-4.338-7.441-3.203c-2.941,1.172-4.378,4.506-3.196,7.45
			l42.234,105.977c0.907,2.229,3.044,3.604,5.327,3.604c0.694,0,1.426-0.134,2.119-0.402
			C172.622,160.604,174.059,157.279,172.878,154.332z"/>
		<path d="M118.508,79.999c-0.548-1.465-1.693-2.664-3.124-3.267c-1.449-0.618-3.094-0.606-4.536,0.012L83.851,88.49l-6.613-22.372
			l21.692-26.293c1.035-1.254,1.474-2.889,1.236-4.497c-0.237-1.596-1.139-3.023-2.479-3.922L84.801,22.81
			c-2.651-1.766-6.205-1.044-7.943,1.595c-1.76,2.619-1.047,6.177,1.59,7.931l7.605,5.069l-17.75,21.519l-32.58-1.778l5.325-12.267
			c1.267-2.898-0.07-6.278-2.975-7.545c-2.923-1.221-6.278,0.07-7.532,2.981l-8.604,19.823c-0.749,1.72-0.606,3.696,0.381,5.294
			c0.983,1.607,2.694,2.606,4.558,2.719l39.655,2.162l8.163,27.632c0.463,1.571,1.583,2.875,3.075,3.568
			c1.489,0.707,3.203,0.719,4.701,0.061l27.404-11.91l14.584,39.202c0.858,2.313,3.038,3.745,5.358,3.745
			c0.663,0,1.346-0.115,1.997-0.371c2.972-1.108,4.47-4.396,3.373-7.356L118.508,79.999z"/>
		<circle cx="54.785" cy="27.215" r="16.112"/>
	</g>
</g>
</svg>