<?xml version="1.0" encoding="iso-8859-1"?>
<!-- Uploaded to: SVG Repo, www.svgrepo.com, Generator: SVG Repo Mixer Tools -->
<!DOCTYPE svg PUBLIC "-//W3C//DTD SVG 1.1//EN" "http://www.w3.org/Graphics/SVG/1.1/DTD/svg11.dtd">
<svg fill="#000000" version="1.1" id="Capa_1" xmlns="http://www.w3.org/2000/svg" xmlns:xlink="http://www.w3.org/1999/xlink" 
	 width="800px" height="800px" viewBox="0 0 235.9 235.9" xml:space="preserve"
	>
<g>
	<path d="M54.957,144.661c-8.585,0-17.253-2.527-24.816-7.788C10.417,123.135,5.537,95.914,19.247,76.2
		c10.263-14.736,28.85-21.745,46.277-17.424c1.678,0.414,2.695,2.104,2.277,3.775c-0.417,1.668-2.113,2.667-3.772,2.274
		c-14.928-3.69-30.872,2.308-39.656,14.934c-11.755,16.897-7.572,40.234,9.332,51.992c16.9,11.759,40.219,7.562,51.98-9.341
		c0.971-1.419,2.929-1.76,4.339-0.779c1.41,0.986,1.76,2.936,0.779,4.342C82.349,138.133,68.749,144.661,54.957,144.661z
		 M57.003,92.784l18.569-26.691c0.983-1.416,2.917-1.766,4.338-0.779c1.416,0.983,1.766,2.923,0.779,4.338L62.151,96.307
		c0.649,0.98,1.13,2.07,1.343,3.254c0.405,2.266-0.094,4.555-1.41,6.437c-1.595,2.308-4.241,3.684-7.057,3.684
		c-1.76,0-3.462-0.529-4.908-1.54c-3.897-2.716-4.859-8.087-2.153-11.978C49.97,93.314,53.672,92.086,57.003,92.784z
		 M57.344,100.672c-0.11-0.624-0.454-1.166-0.971-1.528c-0.393-0.274-0.862-0.417-1.333-0.417c-0.786,0-1.516,0.381-1.958,1.017
		c-0.743,1.066-0.475,2.542,0.597,3.292c1.029,0.718,2.576,0.435,3.279-0.591C57.319,101.927,57.462,101.296,57.344,100.672z
		 M230.875,175.1l1.425,22.207c0.061,0.865-0.25,1.699-0.834,2.332c-0.597,0.634-1.419,0.98-2.277,0.98H41.75
		c-0.697,0.031-1.389,0.043-2.062,0.043c-8.707,0-15.445-2.204-19.966-6.559c-3.803-3.665-5.907-8.841-5.907-14.577
		c0-0.183,0.082-0.359,0.113-0.536c-0.472-1.984-0.572-4.414,0.457-7.1c2.874-7.441,12.93-13.518,29.767-18.17
		c-7.45-1.4-14.578-4.274-20.919-8.689C-1.304,127.958-7.378,94.087,9.69,69.533c10.139-14.56,26.792-23.252,44.558-23.252
		c8.61,0,16.958,2.077,24.548,5.956l3.346-4.807c-1.571-3.219-1.532-6.428,0.17-8.872c1.583-2.266,4.433-3.492,7.706-3.301
		c2.832,0.138,5.873,1.261,8.574,3.146c6.104,4.238,8.519,10.967,5.504,15.314c-1.708,2.441-4.695,3.577-8.26,3.245l-3.504,5.045
		c4.832,4.771,8.68,10.364,11.405,16.55l3.666-1.069c0.709-2.167,2.189-3.745,4.122-4.293c2.024-0.587,4.227,0.013,6.053,1.65
		c1.446,1.297,2.585,3.188,3.2,5.319c0.614,2.146,0.663,4.348,0.134,6.211c-0.664,2.356-2.211,4.046-4.244,4.624
		c-0.506,0.146-1.023,0.22-1.534,0.22c-1.459,0-2.936-0.572-4.238-1.65l-3.407,0.983c0.027,0.137,0.07,0.262,0.095,0.399
		c2.557,14.261-0.591,28.665-8.872,40.551c-0.313,0.45-0.685,0.852-1.017,1.284c22.914-13.499,46.125-30.479,50.4-35.107
		c0.67-0.737,1.669-1.096,2.649-0.987c0.986,0.113,1.869,0.694,2.362,1.559c0.164,0.301,17.104,29.834,34.434,29.834
		c2.29,0,4.451-0.518,6.589-1.584c0.109-0.061,14.541-7.751,15.893-22.374c0.128-1.315,1.06-2.421,2.351-2.74
		c1.285-0.323,2.631,0.207,3.355,1.312c1.4,2.125,31.943,49.139,15.144,72.375C230.87,175.076,230.875,175.088,230.875,175.1z
		 M227.508,142.828c-3.83,2.673-10.937,10.559-11.91,31.999c3.727-0.299,6.388-0.518,7.733-0.634
		C231.222,167.069,230.839,154.909,227.508,142.828z M157.093,114.87c-6.589,4.99-12.775,9.368-18.59,13.253l27.176,50.351
		c17.579-1.175,33.033-2.332,43.653-3.154c1.035-26.847,11.118-35.822,16.233-38.629c-3.318-9.48-7.916-18.365-11.168-24.083
		c-4.798,12.781-16.842,19.139-17.451,19.455c-3.014,1.504-6.168,2.253-9.414,2.253C175.568,134.315,164.528,123.982,157.093,114.87
		z M118.202,181.275l-8.437-36.438c-19.312,9.371-32.099,11.393-39.369,11.393c-3.312,0-5.407-0.396-6.561-0.7
		c-1.072,0.286-2.162,0.603-3.148,0.779c-8.467,1.583-15.15,3.301-20.49,5.054c-0.125,0.609-0.372,1.182-0.858,1.65
		c-0.576,0.548-1.172,1.462-1.218,1.845c-0.012-0.109,1.547,1.176,8.507,1.176c1.577,0,3.428-0.061,5.617-0.22
		c0.5-0.03,10.787-0.438,17.308,5.778c3.045,2.898,4.671,6.741,5.015,11.326C88.149,182.632,103.119,182.03,118.202,181.275z
		 M137.382,180.24c-4.597-10.961-16.081-38.411-16.775-40.913c-0.019-0.061,0-0.109-0.012-0.164c-1.748,0.986-3.44,1.893-5.1,2.764
		l8.862,38.271c0.067,0.256,0.03,0.505,0.03,0.755C128.736,180.727,133.072,180.483,137.382,180.24z M158.847,178.918
		l-25.568-47.355c-2.618,1.674-5.146,3.227-7.605,4.676c0.42,0.384,0.773,0.835,0.938,1.426c0.609,2.07,10.747,26.427,17.36,42.186
		C149.025,179.545,153.994,179.241,158.847,178.918z M81.451,148.619c13.862-3.032,37.129-12.422,71.849-38.712
		c-1.449-2.006-2.673-3.827-3.592-5.255C138.869,113.892,106.66,136.434,81.451,148.619z M105.944,84.399
		c0.006,0.031,0.024,0.067,0.031,0.098l4.999-1.446c1.242-0.368,2.582,0.088,3.361,1.13c0.393,0.529,0.736,0.749,0.867,0.798
		c-0.268-0.138,0.095-1.34-0.411-3.1c-0.398-1.389-1.093-2.195-1.51-2.518c0.013,0.167-0.061,0.454-0.095,0.85
		c-0.103,1.288-0.995,2.381-2.237,2.743L105.944,84.399z M88.389,49.362l-4.213,6.056c0.332,0.21,0.679,0.369,0.999,0.584
		c0.846,0.588,1.626,1.242,2.43,1.872l4.241-6.107c0.737-1.065,2.064-1.549,3.325-1.245c1.97,0.506,3.416,0.192,3.803-0.374
		c0.643-0.917-0.368-4.147-3.946-6.634c-1.729-1.208-3.675-1.946-5.325-2.034c-1.118-0.067-1.961,0.188-2.277,0.643
		c-0.393,0.569-0.18,2.015,0.971,3.687C89.132,46.881,89.132,48.296,88.389,49.362z M26.792,139.917
		c8.096,5.627,17.558,8.604,27.38,8.604c15.719,0,30.467-7.69,39.427-20.581c7.325-10.522,10.111-23.27,7.849-35.899
		c-2.262-12.62-9.311-23.598-19.836-30.92c-8.086-5.63-17.552-8.604-27.371-8.604c-15.719,0-30.467,7.697-39.433,20.585
		C-0.293,94.83,5.075,124.81,26.792,139.917z M20.526,179.022c0.231,0.305,0.398,0.645,0.511,1.017
		c1.328,0.798,7.712,3.075,37.263,3.075c3.224,0,6.591-0.037,10.056-0.086c-0.274-2.861-1.251-5.163-3.081-6.904
		c-4.558-4.372-12.562-4.074-12.663-4.08c-12.114,0.858-18.407-0.633-20.246-4.859c-0.393-0.907-0.481-1.784-0.429-2.624
		c-8.02,3.696-10.812,7.233-11.722,9.584C19.104,176.969,20.514,179.003,20.526,179.022z M225.871,194.384l-0.907-14.103
		c-0.043,0.006-0.067,0.037-0.104,0.043c-1.066,0.098-107.032,9.024-166.572,9.024c-19.68,0-30.437-0.92-36.34-2.411
		c0.536,0.925,1.221,1.838,2.094,2.685c3.611,3.472,9.548,5.085,17.589,4.774L225.871,194.384z"/>
</g>
</svg>