<?xml version="1.0" encoding="iso-8859-1"?>
<!-- Uploaded to: SVG Repo, www.svgrepo.com, Generator: SVG Repo Mixer Tools -->
<!DOCTYPE svg PUBLIC "-//W3C//DTD SVG 1.1//EN" "http://www.w3.org/Graphics/SVG/1.1/DTD/svg11.dtd">
<svg fill="#000000" version="1.1" id="Capa_1" xmlns="http://www.w3.org/2000/svg" xmlns:xlink="http://www.w3.org/1999/xlink" 
	 width="800px" height="800px" viewBox="0 0 267.584 267.583"
	 xml:space="preserve">
<g>
	<path d="M81.826,59.108H43.641c-10.187,0-18.48,9.334-18.48,20.801c0,11.469,8.293,20.807,18.48,20.807h38.186
		c10.193,0,18.48-9.332,18.48-20.807C100.307,68.442,92.019,59.108,81.826,59.108z M81.826,95.448h-16.45V79.92
		c0-1.458-1.178-2.643-2.643-2.643s-2.643,1.178-2.643,2.643v15.527H43.629c-7.271,0-13.189-6.966-13.189-15.527
		s5.919-15.518,13.189-15.518h38.185c7.277,0,13.198,6.957,13.198,15.518C95.021,88.476,89.103,95.448,81.826,95.448z
		 M267.064,172.698c2.588-17.147-5.061-28.229-10.261-35.731c-6.174-8.926-16.696-14.833-20.265-16.666
		c-4.244-18.408-21.153-22.919-29.386-22.752c-0.311,0.006-0.609,0.013-0.907,0.013c-12.167,0-26.251-6.284-30.708-8.437
		c0.14-8.418,1.461-13.463,1.803-14.626c3.763-6.12,4.956-10.79,3.665-14.267c-0.39-1.035-0.98-1.851-1.619-2.451
		c2.484-22.603-15.552-26.957-15.845-27.018c-0.188-0.037-4.499-0.797-7.501-0.53c-3.312-0.262-7.6,0.5-7.898,0.548
		c-0.176,0.043-18.218,4.396-15.719,26.993c-0.648,0.606-1.233,1.422-1.626,2.457c-1.303,3.478-0.106,8.142,3.653,14.267
		c0.344,1.163,1.66,6.208,1.815,14.626c-2.034,0.974-6.098,2.789-11.006,4.49c0.095-0.255,0.165-0.518,0.165-0.797V60.375
		c0-11.731-9.548-21.275-21.275-21.275H21.27C9.526,39.099,0,48.637,0,60.375v82.895c0,11.728,9.526,21.275,21.27,21.275H44.42
		c-0.125,2.631-0.088,5.371,0.38,8.367c0.207,0.913,5.212,22.499,9.234,30.104c1.053,1.973-1.118,8.592-1.821,10.777
		c-0.076,0.214-0.125,0.438-0.125,0.664c-0.061,0.785-0.356,7.521,2.07,12.215c0.125,1.4,0.618,4.366,2.707,6.375
		c1.103,1.06,2.469,1.692,4.028,1.888c1.203,1.041,3.206,1.997,6.004,1.82c0.743,0.311,1.885,0.652,3.337,0.652
		c0.691,0,1.47-0.086,2.313-0.262c1.121,0.188,3.179,0.316,5.821-0.53c1.318,0.201,2.908,0.006,4.199-1.054
		c1.44-1.175,2.149-3.062,2.125-5.639c0.305-0.225,0.612-0.492,0.892-0.81c1.69-1.924,2.159-4.956,1.397-9.304
		c-0.058-0.311-0.165-0.609-0.338-0.89c-0.207-0.371-5.112-8.622-11.256-12.689c-0.484-4.329-0.922-10.254-0.536-11.995
		c1.598-7.016,3.218-16.837,0.112-24.747c3.849-1.425,10.47-4.122,13.588-6.899c2.874-2.569,5.069-4.633,7.026-6.819
		c1.696,6.102,7.201,14.596,21.182,25.678c-0.463,6.022-1.766,28.973,3.547,42.441c0.529,1.358,2.064,2.004,3.431,1.486
		c1.352-0.536,2.012-2.07,1.47-3.429c-5.556-14.09-3.099-41.175-3.075-41.449c0.094-0.9-0.298-1.777-1.002-2.332
		c-22.797-17.731-21.437-26.889-20.472-29.282c0.101-0.231,0.119-0.457,0.131-0.694c4.117,8.519,13.75,14.522,24.954,14.522
		c14.934,0,27.091-10.649,27.091-23.735v-10.887c0-1.458-1.176-2.637-2.649-2.637c-1.442,0-2.636,1.178-2.636,2.637v10.887
		c0,10.169-9.783,18.45-21.806,18.45c-12.014,0-21.799-8.281-21.799-18.45c0-1.455-1.172-2.631-2.637-2.631
		s-2.643,1.176-2.643,2.631c0,2.467,0.56,4.805,1.358,7.058c-0.18-0.177-0.368-0.354-0.612-0.476
		c-1.215-0.627-2.691-0.237-3.435,0.914c-3.166,4.896-5.824,7.605-10.96,12.184c-2.95,2.631-11.523,5.822-14.574,6.826
		c-0.758,0.256-1.364,0.834-1.65,1.577c-0.283,0.755-0.201,1.59,0.204,2.277c3.961,6.644,2.29,16.728,0.694,23.729
		c-0.807,3.508,0.353,13.178,0.584,15.077c0.113,0.84,0.618,1.564,1.339,1.985c4.729,2.624,9.143,9.358,10.221,11.076
		c0.512,3.312-0.125,4.293,0.125,4.354c-0.792,0.03-1.495,0.298-2.006,0.864c-0.533,0.585-0.779,1.376-0.67,2.149
		c0.308,2.205-0.048,3.026-0.155,2.813c-0.597-0.207-1.227-0.207-1.839,0.019c-2.399,0.907-3.909,0.535-3.921,0.529
		c-0.512-0.17-1.047-0.188-1.583-0.043c-1.839,0.524-2.85,0.007-2.862,0.007l0,0c-0.557-0.39-1.218-0.555-1.915-0.457
		c-1.958,0.286-2.682-0.505-2.682-0.505c-0.511-0.792-1.428-1.315-2.35-1.23c-0.853-0.012-1.197-0.219-1.434-0.444
		c-0.904-0.858-1.121-2.746-1.129-3.331c0-0.469-0.131-0.932-0.372-1.34c-1.58-2.667-1.766-7.477-1.69-9.505
		c1.684-5.2,3.249-10.979,1.34-14.547c-3.706-6.984-8.705-28.589-8.705-28.606c-2.195-14.45,4.345-23.846,9.122-30.702l0.691-0.999
		c6.567-9.483,18.843-15.694,18.968-15.758c0.743-0.366,1.267-1.054,1.422-1.863c3.081-16.024,17.278-19.991,24.344-19.771
		c16.088,0.38,34.83-9.323,35.634-9.74c0.874-0.456,1.41-1.354,1.41-2.338c0-11.624-2.095-17.938-2.189-18.2
		c-0.061-0.195-0.143-0.381-0.256-0.558c-3.839-6.159-3.666-8.878-3.422-9.758c0.161-0.554,0.387-0.679,0.329-0.667
		c1.254-0.387,2.033-1.625,1.826-2.917c-2.85-19.092,10.891-22.584,11.342-22.697c1.047-0.186,4.226-0.648,6.399-0.462
		c0.14,0.015,0.444,0.015,0.603,0c2.576-0.217,6.271,0.438,6.284,0.438c0.597,0.131,14.334,3.48,11.46,22.722
		c-0.195,1.291,0.42,2.475,1.687,2.856c0.055,0.024,0.322,0.18,0.463,0.715c0.256,0.88,0.42,3.599-3.429,9.764
		c-0.109,0.177-0.188,0.362-0.256,0.557c-0.085,0.262-2.191,6.576-2.191,18.201c0,0.977,0.56,1.875,1.412,2.338
		c0.798,0.411,19.303,10.062,35.641,9.74c7.094-0.25,21.269,3.745,24.338,19.771c0.152,0.834,0.719,1.541,1.474,1.894
		c0.134,0.064,12.823,6.038,19.479,15.656c4.585,6.643,11.526,16.696,9.292,31.565c-0.067,0.22-5.061,21.823-8.769,28.814
		c-1.894,3.574-0.329,9.347,1.37,14.547c0.061,2.016-0.122,6.825-1.699,9.499c-0.243,0.402-0.371,0.877-0.371,1.34
		c0,0.45-0.207,2.441-1.127,3.324c-0.225,0.231-0.651,0.457-1.431,0.451c-0.913-0.013-1.754,0.328-2.253,1.126
		c-0.085,0.098-0.761,0.883-2.808,0.615c-0.603-0.104-1.309,0.104-1.82,0.401c-0.036,0.024-1.035,0.591-2.929,0.043
		c-0.463-0.134-1.041-0.115-1.504,0.012c-0.067,0.019-1.565,0.421-4.007-0.511c-0.597-0.214-1.327-0.11-1.912,0.109
		c0-0.006-0.414-0.651-0.104-2.941c0.116-0.779,0.079-1.534-0.45-2.118c-0.536-0.579-1.121-0.89-1.857-0.822
		c-0.013-0.006-0.785-0.883-0.226-4.439c1.614-2.631,5.919-8.701,10.199-11.064c0.743-0.414,1.23-1.15,1.34-1.979
		c0.244-1.906,1.4-11.569,0.591-15.083c-1.583-7.015-3.245-17.116,0.688-23.729c0.401-0.688,0.486-1.521,0.207-2.277
		c-0.293-0.748-0.89-1.327-1.656-1.583c-3.051-1.011-11.625-4.201-14.565-6.832c-5.127-4.566-7.782-7.276-10.973-12.19
		c-0.737-1.139-2.247-1.522-3.446-0.907c-0.195,0.109-0.348,0.256-0.5,0.396c0.779-2.216,1.34-4.542,1.34-6.978
		c0-1.462-1.182-2.644-2.643-2.644c-1.455,0-2.643,1.176-2.643,2.644c0,10.169-9.779,18.45-21.812,18.45
		c-12.021,0-21.787-8.281-21.787-18.45v-10.888c0-1.458-1.175-2.637-2.643-2.637c-1.474,0-2.643,1.179-2.643,2.637v10.888
		c0,13.085,12.142,23.729,27.072,23.729c11.18,0,20.764-5.955,24.911-14.426c0.03,0.213,0.042,0.414,0.127,0.621
		c0.963,2.375,2.369,11.521-20.472,29.265c-0.712,0.561-1.107,1.431-1.011,2.339c0.024,0.273,2.497,27.357-3.068,41.448
		c-0.536,1.364,0.134,2.898,1.485,3.435c1.352,0.529,2.887-0.128,3.422-1.48c5.322-13.463,4.007-36.425,3.532-42.447
		c14.005-11.094,19.504-19.582,21.202-25.678c1.948,2.192,4.141,4.256,7.015,6.82c3.13,2.782,9.743,5.48,13.604,6.898
		c-3.118,7.88-1.492,17.714,0.104,24.746c0.396,1.742-0.043,7.667-0.536,11.984c-6.132,4.073-11.039,12.33-11.259,12.701
		c-0.14,0.269-0.268,0.572-0.316,0.883c-0.779,4.342-0.316,7.393,1.382,9.311c0.28,0.316,0.579,0.578,0.89,0.804
		c-0.037,2.582,0.67,4.47,2.125,5.639c1.291,1.06,2.898,1.261,4.201,1.054c2.643,0.853,4.701,0.725,5.827,0.535
		c2.588,0.579,4.537,0.086,5.633-0.383c2.765,0.188,4.805-0.792,6.028-1.827c1.547-0.177,2.923-0.821,4.031-1.875
		c2.082-2.01,2.581-4.987,2.691-6.382c2.436-4.701,2.131-11.436,2.07-12.221c-0.013-0.226-0.049-0.451-0.122-0.664
		c-0.706-2.18-2.862-8.793-1.814-10.783C261.797,195.398,266.82,173.812,267.064,172.698z M75.28,120.332
		c-3.438,1.878-13.643,7.946-19.817,16.873l-0.679,0.992c-3.474,4.975-8.086,11.782-9.764,21.051H21.288
		c-8.817,0-15.981-7.168-15.981-15.984V60.368c0-8.823,7.164-15.987,15.981-15.987h82.898c8.811,0,15.98,7.17,15.98,15.987v32.44
		c0,0.868,0.451,1.604,1.1,2.086c-5.289,1.564-11.144,2.779-16.587,2.648C96.16,97.381,79.5,101.899,75.28,120.332z M187.68,152.397
		c-2.058,0-3.714-1.693-3.714-3.8c0-2.101,1.656-3.8,3.714-3.8c2.07,0,3.745,1.699,3.745,3.8
		C191.412,150.704,189.75,152.397,187.68,152.397z M124.207,144.797c2.064,0,3.723,1.699,3.723,3.8c0,2.106-1.659,3.8-3.723,3.8
		c-2.058,0-3.727-1.693-3.727-3.8C120.48,146.497,122.148,144.797,124.207,144.797z M181.896,191.075v31.134
		c0,1.455-1.17,2.643-2.644,2.643c-1.449,0-2.643-1.175-2.643-2.643v-31.134c0-11.429-9.292-20.715-20.715-20.715
		c-11.411,0-20.706,9.292-20.706,20.715v30.008c0,1.449-1.172,2.637-2.64,2.637c-1.465,0-2.649-1.182-2.649-2.637v-30.008
		c0-14.34,11.667-26.001,25.995-26.001C170.24,165.081,181.896,176.742,181.896,191.075z M158.549,199.935v5.632
		c1.596,1.443,3.258,2.229,4.933,2.241c0.036,0,0.061,0,0.085,0c3.057,0,5.456-2.32,5.469-2.338
		c1.035-1.023,2.722-1.018,3.738,0.012c1.023,1.029,1.035,2.686,0.013,3.721c-0.146,0.152-3.928,3.896-9.22,3.896
		c-0.024,0-0.036,0-0.049,0c-1.717-0.006-3.385-0.396-4.969-1.162v1.041c0,1.455-1.181,2.643-2.654,2.643
		c-1.449,0-2.637-1.182-2.637-2.643v-1.029c-1.589,0.755-3.245,1.15-4.963,1.163c-0.012,0-0.036,0-0.049,0
		c-5.315,0-9.069-3.745-9.225-3.897c-1.029-1.035-1.011-2.716,0.024-3.738c1.035-1.018,2.706-1.018,3.729,0.006
		c0.024,0.024,2.427,2.338,5.483,2.338c0.024,0,0.042,0,0.066,0c1.688-0.012,3.337-0.797,4.944-2.234v-5.633
		c-1.589,0.756-3.245,1.145-4.962,1.157c-0.013,0-0.037,0-0.049,0c-5.316,0-9.067-3.732-9.226-3.897
		c-1.029-1.041-1.001-2.715,0.027-3.732c1.026-1.029,2.71-1.017,3.721,0c0.064,0.061,2.457,2.338,5.496,2.338
		c0.018,0,0.042,0,0.061,0c1.687-0.018,3.337-0.803,4.944-2.234v-4.213c-1.583,0.748-3.245,1.145-4.957,1.15
		c-0.018,0-0.03,0-0.048,0c-5.319,0-9.073-3.745-9.231-3.897c-1.026-1.035-1.008-2.71,0.027-3.738
		c1.029-1.023,2.703-1.011,3.727,0.006c0.07,0.067,2.457,2.351,5.495,2.351c0.024,0,0.043,0,0.067,0
		c1.675-0.019,3.324-0.798,4.932-2.223v-4.688c0-1.456,1.176-2.637,2.637-2.637c1.468,0,2.655,1.175,2.655,2.637v4.677
		c1.607,1.449,3.275,2.229,4.969,2.234c0.012,0,0.024,0,0.024,0c3.081,0,5.456-2.32,5.486-2.338c1.017-1.035,2.71-1.042,3.738-0.019
		c1.035,1.028,1.048,2.703,0.019,3.738c-0.146,0.159-3.928,3.897-9.219,3.897c-0.013,0-0.037,0-0.049,0
		c-1.711-0.006-3.373-0.396-4.957-1.157v4.22c1.607,1.455,3.276,2.234,4.981,2.241c0.012,0,0.024,0,0.024,0
		c3.081,0,5.456-2.308,5.48-2.332c1.035-1.035,2.703-1.048,3.738-0.013c1.029,1.029,1.047,2.697,0.012,3.732
		c-0.146,0.158-3.927,3.897-9.219,3.897c-0.012,0-0.036,0-0.049,0C161.776,201.08,160.133,200.69,158.549,199.935z M159.109,223.731
		c0,1.772-1.431,3.203-3.196,3.203c-1.772,0-3.209-1.425-3.209-3.203s1.425-3.209,3.209-3.209
		C157.673,220.529,159.109,221.965,159.109,223.731z M92.923,128.046c1.428-0.171,2.731,0.946,2.85,2.405
		c0.125,1.455-0.953,2.73-2.411,2.855c-20.676,1.729-22.591,19.034-22.655,19.759c-0.131,1.371-1.275,2.394-2.625,2.394
		c-0.094,0-0.173-0.006-0.262-0.013c-1.446-0.133-2.518-1.424-2.375-2.88C65.482,152.341,67.903,130.135,92.923,128.046z
		 M221.578,130.795c-1.443-0.161-2.479-1.458-2.345-2.914c0.146-1.446,1.438-2.518,2.898-2.338
		c0.226,0.027,22.433,2.634,24.271,27.675c0.11,1.449-0.986,2.729-2.447,2.826c-0.067,0.006-0.134,0.006-0.195,0.006
		c-1.376,0-2.521-1.06-2.637-2.441C239.633,133.04,222.303,130.877,221.578,130.795z"/>
</g>
</svg>